<?xml version="1.0" encoding="utf-8"?>
<!-- Generator: Adobe Illustrator 24.1.2, SVG Export Plug-In . SVG Version: 6.00 Build 0)  -->
<svg version="1.1" id="Layer_1" xmlns="http://www.w3.org/2000/svg" xmlns:xlink="http://www.w3.org/1999/xlink" x="0px" y="0px"
	 viewBox="0 0 327.53 80.69" style="enable-background:new 0 0 327.53 80.69;" xml:space="preserve">
<style type="text/css">
	.st0{fill:#0099D8;}
	.st1{fill:#003976;}
</style>
<g>
	<g>
		<path class="st0" d="M57.34,12.99l-0.15-0.02c9.8,5.43,16.55,15.66,16.55,27.66c0,11.89-6.44,21.94-16.1,27.42l-0.2,0.12
			c13.58-2.02,23.93-13.4,23.93-27.54C81.37,26.52,70.88,15.05,57.34,12.99z"/>
		<path class="st0" d="M12.44,40.63c0,14.27,10.57,26.07,24.31,28l-6.33-28h10.11V12.35V0l-3.12,12.54
			C23.35,14.18,12.44,26.13,12.44,40.63z"/>
	</g>
	<path class="st1" d="M24.13,68.17C10.55,66.15,0.2,54.77,0.2,40.63C0.2,26.52,10.7,15.05,24.23,13l0.15-0.02
		C14.58,18.4,7.83,28.63,7.83,40.63c0,11.89,6.45,21.94,16.1,27.42L24.13,68.17z"/>
	<path class="st1" d="M69,40.63c0-14.41-10.78-26.31-24.71-28.06l6.35,28.06H40.53v40.06l3.01-11.92C57.83,67.36,69,55.3,69,40.63z"
		/>
</g>
<path class="st1" d="M111.72,27.65l0.01,4.26h-4.15v-4.22H96.36V26.2h5.7v-1.89h-6.73v-1.59h12.09v-3.75H96.3v-1.56h14.02
	c1.01,0,1.34,1.1,1.34,1.52c0,0.42,0,3.8,0,3.8h1.02v1.59h-6.63v1.89h4.2C111.77,26.19,111.72,27.65,111.72,27.65z"/>
<path class="st1" d="M106.6,36.25v3.32h-7.06v1.51c0,0,6.16,0,6.73,0c1.03,0,1.34-0.46,1.34-0.46v-5.81h4.04v8.26h-4.04V42.1
	c0,0-0.37,0.56-1.79,0.56c-0.82,0-9.07,0-9.07,0c-0.38,0-0.66-0.1-0.84-0.29c-0.22-0.23-0.34-0.59-0.34-1.1v-3.22h7.13v-1.7h-7.13
	v-1.53h9.71C105.28,34.81,106.6,34.89,106.6,36.25z M111.62,48.99l-14.17-0.03c-0.38,0-0.67-0.1-0.88-0.31
	c-0.23-0.23-0.34-0.59-0.34-1.09v-3.6h4.04v0.75h7.29v-0.75h4.06V48.99z M107.56,46.29h-7.29v1.13h7.29V46.29z"/>
<g>
	<g>
		<polygon class="st1" points="155.83,35.61 118.72,35.61 118.72,39.09 133.37,39.09 133.37,48.92 141.94,48.92 141.94,39.09 
			155.83,39.09 		"/>
		<path class="st1" d="M123.21,32.91h25.57h5.33V17.48h-8.56v4.64h-16.94v-4.63h-8.56v12C120.05,31.33,121.24,32.83,123.21,32.91z
			 M145.55,25.6v3.84h-16.94V25.6H145.55z"/>
	</g>
	<path class="st1" d="M196.73,17.46h-8.63v2.15h-4.27v-2.15h-22.21v3.27h13.71c0.18,2.17,0.03,11.26-15.26,11.94l1.93,3.17
		c0,0,10.55,0.29,17.84-5.41l8.26-0.01v5.23c-2.44-0.63-5.26-0.99-8.26-0.99c-9.31,0-16.85,3.43-16.85,7.68
		c0,4.23,7.54,7.67,16.85,7.67c9.31,0,16.89-3.43,16.89-7.67C196.73,42.18,196.73,17.46,196.73,17.46z M182.32,26.95
		c0.55-1.14,0.97-2.42,1.21-3.87h4.57v3.87H182.32z M171.74,42.23c0-2.26,3.66-4.09,8.17-4.09c4.52,0,8.17,1.83,8.17,4.09
		s-3.66,4.09-8.17,4.09C175.4,46.32,171.74,44.49,171.74,42.23z"/>
	<g>
		<path class="st1" d="M325.43,20.88c0-1.79-1.14-3.23-3.16-3.4h-29.12v3.49h23.73v24.54h-3.24v-13.7h-7.42v13.7h-2.86v-13.7h-7.42
			v13.7h-5.53v3.47h37.12v-3.47h-2.09L325.43,20.88"/>
	</g>
	<g>
		<path class="st1" d="M204.32,42.17c0,1.79,1.41,3.41,3.37,3.41l0.04,0.01l12.26-0.03c0.39,0.01,3.26,0,4.13-1.24v4.64h7.42V31.35
			h2.23V48.9h7.42V17.48h-7.42v10.39h-2.23V17.48h-7.42v23.38c-0.95,1.37-3.42,1.25-3.42,1.25l-7.81,0.01V20.94h8.56v-3.45h-17.13
			v24.67L204.32,42.17z"/>
	</g>
	<polygon class="st1" points="288.87,22.08 284.68,22.08 284.68,17.49 276.11,17.49 276.11,35.33 284.68,35.33 284.68,25.56 
		288.87,25.56 	"/>
	<path class="st1" d="M281.28,37.32h-31.52v3.47h26.36v8.14h8.56v-8.27c0-1.76-1.44-3.34-3.36-3.34"/>
	<path class="st1" d="M268.07,20.96h5v-3.18h-8.18v-1.84h-8.56v1.84h-7.99v3.18h5.17c-3.56,1.13-5.63,3.59-5.63,6.54
		c0,4.74,5.79,8.59,12.92,8.59c7.14,0,12.92-3.85,12.92-8.59C273.71,24.55,271.51,21.91,268.07,20.96z M260.79,32.05
		c-2.7,0-4.89-2.04-4.89-4.55s2.19-4.56,4.89-4.56s4.89,2.05,4.89,4.56C265.68,30.01,263.49,32.05,260.79,32.05z"/>
</g>
<g>
	<path class="st1" d="M95.84,65.76v-9.87h2.59c1.06,0,2.05-0.04,2.97,0.52c0.9,0.55,1.46,1.5,1.46,2.48c0,0.97-0.45,1.91-1.31,2.52
		c-0.9,0.66-2.18,0.6-3.27,0.6h-0.4v3.74h-2.04V65.76z M98.25,60.24c0.5,0,1.08,0.03,1.57-0.11c0.6-0.17,1-0.64,1-1.22
		c0-0.6-0.45-1.03-1.05-1.17c-0.45-0.1-1.07-0.08-1.52-0.08h-0.37v2.57h0.37V60.24z"/>
	<path class="st1" d="M106.21,55.89v6.15c0,0.45-0.03,0.92,0.21,1.34c0.3,0.51,0.82,0.84,1.46,0.84c0.53,0,1.09-0.27,1.38-0.69
		c0.31-0.45,0.3-0.96,0.3-1.48V55.9h2.03v6.15c0,0.98-0.09,1.9-0.8,2.67c-0.71,0.76-1.8,1.28-2.92,1.28c-1.04,0-2.13-0.51-2.81-1.2
		c-0.81-0.82-0.9-1.72-0.9-2.75V55.9L106.21,55.89L106.21,55.89z"/>
	<path class="st1" d="M113.69,55.89h2.04v4.27l3.42-4.27h2.44l-4.15,4.85l4.15,5.02h-2.44l-3.42-4.33v4.33h-2.04V55.89z"/>
	<path class="st1" d="M125.56,62.11l-3.62-6.22h2.25l2.39,4.54l2.39-4.54h2.24l-3.61,6.22v3.65h-2.04
		C125.56,65.76,125.56,62.11,125.56,62.11z"/>
	<path class="st1" d="M143.01,60.87c0,2.86-2.6,5.13-5.72,5.13s-5.73-2.27-5.73-5.13c0-2.87,2.56-5.17,5.73-5.17
		C140.46,55.7,143.01,58,143.01,60.87z M133.6,60.83c0,1.83,1.68,3.39,3.69,3.39c2.01,0,3.69-1.56,3.69-3.39
		c0-1.85-1.64-3.35-3.69-3.35C135.24,57.48,133.6,58.98,133.6,60.83z"/>
	<path class="st1" d="M144.62,55.89h2.29l4.58,7.21v-7.21h2.03v9.87h-2.26l-4.61-7.18v7.18h-2.03V55.89z"/>
	<path class="st1" d="M163.79,58.79c-0.65-0.82-1.79-1.31-2.88-1.31c-0.94,0-1.84,0.31-2.54,0.85c-0.76,0.6-1.26,1.58-1.26,2.49
		c0,0.83,0.42,1.71,1.05,2.3c0.74,0.7,1.79,1.11,2.84,1.11c1.3,0,2.62-0.72,3.21-1.77h-4.59v-1.72h7.17v0.21
		c0,2.88-2.71,5.06-5.84,5.06c-3.17,0-5.88-2.22-5.88-5.11c0-2.91,2.69-5.18,5.85-5.18c2.23,0,4.49,1.19,5.32,3.08h-2.45V58.79z"/>
	<path class="st1" d="M172.28,55.89h2.29l4.58,7.21v-7.21h2.03v9.87h-2.26l-4.61-7.18v7.18h-2.04L172.28,55.89L172.28,55.89z"/>
	<path class="st1" d="M186.96,55.89h1.59l4.63,9.87h-2.24l-1.19-2.55h-3.9l-1.22,2.55h-2.25L186.96,55.89z M188.94,61.43l-1.18-2.99
		l-1.17,2.99H188.94z"/>
	<path class="st1" d="M195.41,57.67h-2.02v-1.78h6.11v1.78h-2.05v8.09h-2.04V57.67z"/>
	<path class="st1" d="M200.54,55.89h2.04v9.87h-2.04V55.89z"/>
	<path class="st1" d="M215.59,60.87c0,2.86-2.6,5.13-5.73,5.13c-3.12,0-5.73-2.27-5.73-5.13c0-2.87,2.56-5.17,5.73-5.17
		C213.03,55.7,215.59,58,215.59,60.87z M206.17,60.83c0,1.83,1.68,3.39,3.69,3.39c2.01,0,3.69-1.56,3.69-3.39
		c0-1.85-1.64-3.35-3.69-3.35C207.81,57.48,206.17,58.98,206.17,60.83z"/>
	<path class="st1" d="M217.19,55.89h2.29l4.58,7.21v-7.21h2.03v9.87h-2.26l-4.61-7.18v7.18h-2.03V55.89z"/>
	<path class="st1" d="M231.87,55.89h1.6l4.62,9.87h-2.25l-1.19-2.55h-3.9l-1.22,2.55h-2.24L231.87,55.89z M233.85,61.43l-1.18-2.99
		l-1.18,2.99H233.85z"/>
	<path class="st1" d="M239.21,55.89h2.04v8.09h3.36v1.77h-5.4V55.89z"/>
	<path class="st1" d="M251.95,55.89v6.15c0,0.45-0.03,0.92,0.21,1.34c0.3,0.51,0.82,0.84,1.46,0.84c0.53,0,1.08-0.27,1.38-0.69
		c0.31-0.45,0.3-0.96,0.3-1.48V55.9h2.03v6.15c0,0.98-0.09,1.9-0.8,2.67c-0.72,0.76-1.8,1.28-2.91,1.28c-1.04,0-2.13-0.51-2.81-1.2
		c-0.8-0.82-0.9-1.72-0.9-2.75V55.9L251.95,55.89L251.95,55.89z"/>
	<path class="st1" d="M259.43,55.89h2.3l4.58,7.21v-7.21h2.04v9.87h-2.27l-4.61-7.18v7.18h-2.04V55.89z"/>
	<path class="st1" d="M270.44,55.89h2.03v9.87h-2.03V55.89z"/>
	<path class="st1" d="M273.71,55.89h2.15l2.96,7.51l2.96-7.51h2.14l-4.25,9.87h-1.68L273.71,55.89z"/>
	<path class="st1" d="M285.01,55.89h5.91v1.78h-3.87v2.27h3.7v1.78h-3.7v2.27h3.87v1.77h-5.91V55.89z"/>
	<path class="st1" d="M292.74,55.89h3.18c1.04,0.01,2.03,0.07,2.86,0.69c0.78,0.59,1.28,1.51,1.28,2.43c0,0.72-0.37,1.61-0.91,2.15
		c-0.54,0.52-1.2,0.8-1.95,0.94l2.98,3.65h-2.51l-2.89-3.78v3.78h-2.03L292.74,55.89L292.74,55.89z M295.9,60.59
		c0.53,0,1.22-0.07,1.62-0.41c0.33-0.28,0.51-0.65,0.51-1.07c0-0.43-0.21-0.85-0.6-1.11c-0.47-0.32-0.95-0.34-1.51-0.33h-1.13v2.92
		C294.79,60.59,295.9,60.59,295.9,60.59z"/>
	<path class="st1" d="M302.69,62.98c0,0.78,0.71,1.24,1.53,1.24c0.77,0,1.43-0.52,1.43-1.24c0-1.09-1.01-1.4-1.92-1.67
		c-0.73-0.21-1.35-0.4-1.9-0.91c-0.54-0.49-0.86-1.22-0.86-1.89c0-1.62,1.49-2.81,3.24-2.81c1.7,0,3.23,1.25,3.22,2.81h-2.1
		c-0.03-0.62-0.59-1.03-1.23-1.03c-0.67,0-1.1,0.46-1.09,1.05c-0.01,0.72,0.73,1,1.38,1.2c0.77,0.24,1.52,0.44,2.14,0.91
		c0.79,0.56,1.17,1.28,1.17,2.24c0,1.76-1.63,3.12-3.57,3.12c-1.87,0-3.56-1.3-3.56-3.01h2.12V62.98z"/>
	<path class="st1" d="M309.1,55.89h2.03v9.87h-2.03V55.89z"/>
	<path class="st1" d="M314.37,57.67h-2.01v-1.78h6.1v1.78h-2.05v8.09h-2.04V57.67z"/>
	<path class="st1" d="M322.15,62.11l-3.61-6.22h2.24l2.4,4.54l2.39-4.54h2.23l-3.62,6.22v3.65h-2.04L322.15,62.11L322.15,62.11z"/>
</g>
</svg>
